<svg width="72" height="68" viewBox="0 0 72 68" fill="none" xmlns="http://www.w3.org/2000/svg">
<path d="M8 9H69.6982C70.2504 9.00019 70.6982 9.44783 70.6982 10V65.5C70.6982 66.0522 70.2504 66.4998 69.6982 66.5H8C7.44772 66.5 7 66.0523 7 65.5V10C7 9.44772 7.44772 9 8 9Z" fill="white" stroke="white" stroke-width="2"/>
<path d="M2.91699 2.63574H64.6152C65.1674 2.63594 65.6152 3.08358 65.6152 3.63574V59.1357C65.6152 59.6879 65.1674 60.1355 64.6152 60.1357H2.91699C2.36471 60.1357 1.91699 59.688 1.91699 59.1357V3.63574C1.91699 3.08346 2.36471 2.63574 2.91699 2.63574Z" fill="#080808" stroke="white" stroke-width="2"/>
<path d="M60.0627 19.329L58.6278 18.9752C57.71 18.7436 57.1723 18.1754 56.92 17.4615L56.2885 15.1087C56.2721 15.0622 56.2319 15 56.1083 15C56.0042 15 55.9445 15.0622 55.928 15.1087L55.2966 17.4624C55.0432 18.1763 54.5065 18.7443 53.5888 18.976L52.1539 19.3298C51.9509 19.3802 51.9479 19.5993 52.1497 19.6521L53.5949 20.0326C54.5096 20.2651 55.0432 20.8324 55.2966 21.5431L55.929 23.87C55.9455 23.9165 55.9795 24 56.1093 24C56.2463 24 56.2731 23.9165 56.2895 23.87L56.922 21.5431C57.1754 20.8316 57.709 20.2643 58.6237 20.0326L60.0689 19.6521C60.2687 19.5985 60.2656 19.3795 60.0627 19.329Z" fill="white"/>
<path d="M60.1985 19.4274C60.1758 19.384 60.1315 19.3462 60.0625 19.3289L58.6276 18.9751C57.7099 18.7434 57.1721 18.1753 56.9198 17.4614L56.2884 15.1086C56.2791 15.0818 56.2461 15.033 56.208 15.0188L56.412 17.3803C56.5634 18.4582 56.6932 18.9656 57.818 19.1138C58.7842 19.2414 59.9018 19.388 60.1985 19.4274Z" fill="white"/>
<path d="M60.2015 19.5503L57.7129 19.9869C56.8363 20.1571 56.3532 20.5455 56.3532 21.562L56.1091 23.9999C56.1926 23.9936 56.2606 23.9589 56.2894 23.8699L56.9218 21.5431C57.1752 20.8316 57.7088 20.2642 58.6235 20.0326L60.0687 19.652C60.1366 19.6331 60.1799 19.5945 60.2015 19.5503Z" fill="white"/>
<path d="M17.2277 26.3657V49H15V15H26.0252L31.5378 29.1829L35.9176 15H48V49H35.9176V23.5L28.2151 49H24.9302L17.2277 26.3657Z" fill="white"/>
</svg>
